# xmcd CD database file
#
# Track frame offsets:
#	150
#	18584
#	37709
#	51811
#	77537
#	96361
#	114834
#	131484
#	153063
#	167707
#	183434
#	197691
#	212203
#	229439
#	243248
#
# Disc length: 3404 seconds
#
# Revision: 0
# Processed by: cddbd v1.5.2PL0 Copyright (c) Steve Scherf et al.
# Submitted via: CDex 1.70beta1
#
DISCID=b90d4a0f
DTITLE=Humphrey Lyttleton - 1959 Cd 2
DYEAR=1900
DGENRE=Jazz
TTITLE0=Finger Snapper
TTITLE1=It's All Up With I
TTITLE2=Swallowing The Blues
TTITLE3=One Day I Met An African
TTITLE4=Only For Men
TTITLE5=South Winds
TTITLE6=Sweet And Sour
TTITLE7=Holy Main
TTITLE8=Any Kind Of Blues
TTITLE9=Kilroy Was Gone
TTITLE10=The House That Humph Built
TTITLE11=Lean Baby
TTITLE12=Rain
TTITLE13=Big Bill Blues
TTITLE14=Weary Blues
EXTD=
EXTT0=
EXTT1=
EXTT2=
EXTT3=
EXTT4=
EXTT5=
EXTT6=
EXTT7=
EXTT8=
EXTT9=
EXTT10=
EXTT11=
EXTT12=
EXTT13=
EXTT14=
PLAYORDER=
